<?xml version="1.0" encoding="utf-8"?>
<!-- Generator: Adobe Illustrator 18.1.0, SVG Export Plug-In . SVG Version: 6.00 Build 0)  -->
<!DOCTYPE svg PUBLIC "-//W3C//DTD SVG 1.1//EN" "http://www.w3.org/Graphics/SVG/1.1/DTD/svg11.dtd">
<svg version="1.1" id="Calque_1" xmlns="http://www.w3.org/2000/svg" xmlns:xlink="http://www.w3.org/1999/xlink" x="0px" y="0px"
	 viewBox="279.6 403.1 36 35.8" enable-background="new 279.6 403.1 36 35.8" xml:space="preserve">
<g>
	<path fill="#1A617E" d="M299,403.1c-0.4,0-0.9-0.1-1.4-0.1c-9.9,0-17.9,8-17.9,17.9c0,0.4,0,0.9,0.1,1.3c0.7,9.6,9,17.1,19,16.5
		c8.9-0.6,16.2-7.8,16.7-16.7C316.1,412.2,308.6,403.9,299,403.1z M296.4,407.1v11.3c0,0.7-0.6,1.3-1.3,1.3h-11.3
		c-0.8,0-1.4-0.7-1.3-1.5c1.1-6.3,6.1-11.3,12.4-12.4C295.7,405.7,296.4,406.3,296.4,407.1z"/>
</g>
</svg>
