<?xml version="1.0" encoding="iso-8859-1"?>
<!-- Generator: Adobe Illustrator 18.0.0, SVG Export Plug-In . SVG Version: 6.00 Build 0)  -->
<!DOCTYPE svg PUBLIC "-//W3C//DTD SVG 1.1//EN" "http://www.w3.org/Graphics/SVG/1.1/DTD/svg11.dtd">
<svg version="1.1" xmlns="http://www.w3.org/2000/svg" xmlns:xlink="http://www.w3.org/1999/xlink" x="0px" y="0px"
	 viewBox="0 0 160.138 160.138" style="enable-background:new 0 0 160.138 160.138;" xml:space="preserve">
<g id="linkdin" style="display:none;">
	<g style="display:inline;">
		<path style="fill:#FFFFFF;" d="M62.522,109.4H48.319V63.133h14.203V109.4z M55.437,57.217c-5.172,0-7.73-2.38-7.73-7.118
			c0-2.002,0.734-3.692,2.214-5.038c1.479-1.39,3.303-2.091,5.516-2.091c5.127,0,7.697,2.391,7.697,7.129
			C63.133,54.837,60.564,57.217,55.437,57.217L55.437,57.217z M115.35,109.4h-14.558V83.598c0-6.74-2.38-10.088-7.118-10.088
			c-3.737,0-6.217,1.868-7.429,5.65c-0.345,0.567-0.567,1.78-0.567,3.559V109.4H71.119V77.948c0-7.085-0.078-12.034-0.256-14.815
			h12.423l0.912,6.206c3.259-4.905,7.997-7.385,14.514-7.385c4.949,0,8.953,1.735,12.034,5.172
			c3.081,3.481,4.604,8.475,4.604,14.993V109.4z M115.35,109.4"/>
		<path style="fill:#FFFFFF;" d="M80.069,7.784c19.308,0,37.46,7.519,51.113,21.172c13.653,13.653,21.172,31.805,21.172,51.113
			s-7.519,37.46-21.172,51.113c-13.653,13.653-31.805,21.172-51.113,21.172s-37.46-7.519-51.113-21.172
			C15.303,117.529,7.784,99.377,7.784,80.069s7.519-37.46,21.172-51.113C42.609,15.303,60.761,7.784,80.069,7.784 M80.069-0.039
			c-44.242,0-80.108,35.865-80.108,80.108s35.865,80.108,80.108,80.108s80.108-35.865,80.108-80.108S124.311-0.039,80.069-0.039
			L80.069-0.039z"/>
	</g>
</g>
<g id="behance" style="display:none;">
	<g style="display:inline;">
		<path style="fill:#FFFFFF;" d="M75.853,60.247c1.478,2.063,2.22,4.552,2.22,7.447c0,2.976-0.753,5.383-2.238,7.196
			c-0.842,1.012-2.06,1.94-3.678,2.772c2.46,0.915,4.318,2.343,5.574,4.309c1.251,1.98,1.878,4.356,1.878,7.163
			c0,2.894-0.713,5.485-2.151,7.778c-0.909,1.529-2.045,2.807-3.414,3.863c-1.534,1.187-3.363,1.994-5.451,2.445
			c-2.096,0.429-4.37,0.649-6.821,0.649H40.014V55.036h23.338C69.235,55.118,73.409,56.854,75.853,60.247L75.853,60.247z
			 M49.646,63.528v10.757h11.734c2.093,0,3.789-0.401,5.11-1.203c1.295-0.816,1.956-2.244,1.956-4.293
			c0-2.283-0.865-3.77-2.591-4.508c-1.485-0.508-3.398-0.753-5.705-0.753H49.646z M49.646,82.387v13.01h11.716
			c2.091,0,3.725-0.298,4.889-0.866c2.12-1.065,3.178-3.1,3.178-6.096c0-2.547-1.027-4.287-3.08-5.236
			c-1.145-0.529-2.749-0.802-4.822-0.811H49.646z M49.646,82.387"/>
		<path style="fill:#FFFFFF;" d="M110.783,68.486c2.494,1.134,4.552,2.909,6.181,5.343c1.452,2.162,2.405,4.646,2.845,7.476
			c0.244,1.653,0.349,4.034,0.304,7.154H94.111c0.147,3.638,1.398,6.17,3.745,7.632c1.418,0.904,3.135,1.355,5.134,1.355
			c2.127,0,3.858-0.553,5.178-1.658c0.733-0.597,1.369-1.413,1.931-2.484h9.525c-0.249,2.131-1.409,4.318-3.462,6.536
			c-3.198,3.497-7.676,5.262-13.431,5.262c-4.747,0-8.934-1.482-12.57-4.445c-3.629-2.967-5.438-7.778-5.438-14.463
			c0-6.248,1.633-11.055,4.918-14.393c3.272-3.335,7.525-5.013,12.757-5.013C105.503,66.788,108.301,67.37,110.783,68.486
			L110.783,68.486z M96.829,76.647c-1.32,1.383-2.14,3.241-2.483,5.603h16.075c-0.171-2.514-1.002-4.425-2.494-5.716
			c-1.481-1.296-3.325-1.947-5.525-1.947C100.007,74.588,98.145,75.282,96.829,76.647L96.829,76.647z M96.829,76.647"/>
		<rect x="90.081" y="60.043" style="fill:#FFFFFF;" width="25.034" height="5.006"/>
		<path style="fill:#FFFFFF;" d="M80.069,7.784c19.308,0,37.46,7.519,51.113,21.172c13.653,13.653,21.172,31.805,21.172,51.113
			s-7.519,37.46-21.172,51.113c-13.653,13.653-31.805,21.172-51.113,21.172s-37.46-7.519-51.113-21.172
			C15.303,117.529,7.784,99.377,7.784,80.069s7.519-37.46,21.172-51.113C42.609,15.303,60.761,7.784,80.069,7.784 M80.069-0.039
			c-44.242,0-80.108,35.865-80.108,80.108s35.865,80.108,80.108,80.108s80.108-35.865,80.108-80.108S124.311-0.039,80.069-0.039
			L80.069-0.039z"/>
	</g>
</g>
<g id="vimeo" style="display:none;">
	<g id="vimeo_1_" style="display:inline;">
		<g>
			<g id="Layer_1">
				<g>
					<path style="fill:#FFFFFF;" d="M101.997,54.617c-4.558,0-8.795,2.119-12.73,6.365c-2.768,2.777-4.451,6.036-5.039,9.802
						c1.842-1.166,3.445-1.745,4.816-1.745c1.415,0,2.581,0.623,3.499,1.887c1.771,2.475,1.674,5.599-0.294,9.356
						c-4.353,8.315-7.531,12.463-9.49,12.463c-1.389,0-3.169-4.647-5.359-13.95c-0.383-1.38-0.783-3.365-1.184-5.938
						c-0.401-2.564-0.783-4.789-1.184-6.677c-0.401-1.879-0.988-3.81-1.78-5.778c-0.793-1.967-1.78-3.419-2.964-4.3
						c-0.837-0.614-1.798-0.926-2.911-0.926c-0.49,0-0.997,0.062-1.54,0.187c-2.573,0.597-5.546,2.181-8.902,4.754
						c-3.374,2.564-6.134,5.039-8.315,7.415l-2.973,3.561l2.68,3.552c0.401-0.392,0.89-0.793,1.478-1.184
						c0.588-0.401,1.683-0.899,3.267-1.487c0.677-0.249,1.256-0.383,1.7-0.383c0.614,0,1.032,0.222,1.273,0.677
						c0.588,0.793,2.413,6.383,5.475,16.772c3.08,10.389,5.003,16.371,5.787,17.956c1.389,2.769,3.267,4.896,5.635,6.383
						c1.157,0.712,2.413,1.077,3.801,1.077c1.469,0,3.08-0.418,4.807-1.237c5.35-3.552,11.475-9.49,18.401-17.805
						c6.926-8.306,11.172-17.11,12.757-26.404c1.389-8.11-0.979-12.766-7.113-13.95C104.365,54.751,103.171,54.617,101.997,54.617z"
						/>
				</g>
			</g>
		</g>
		<g>
			<path style="fill:#FFFFFF;" d="M80.069,7.784c19.308,0,37.46,7.519,51.113,21.172c13.653,13.653,21.172,31.805,21.172,51.113
				s-7.519,37.46-21.172,51.113c-13.653,13.653-31.805,21.172-51.113,21.172s-37.46-7.519-51.113-21.172
				C15.303,117.529,7.784,99.377,7.784,80.069s7.519-37.46,21.172-51.113C42.609,15.303,60.761,7.784,80.069,7.784 M80.069-0.039
				c-44.242,0-80.108,35.865-80.108,80.108s35.865,80.108,80.108,80.108s80.108-35.865,80.108-80.108S124.311-0.039,80.069-0.039
				L80.069-0.039z"/>
		</g>
	</g>
</g>
<g id="flick" style="display:none;">
	<g style="display:inline;">
		<path style="fill:#FFFFFF;" d="M89.882,80.028c0,11.271,9.125,20.397,20.397,20.397c11.234,0,20.358-9.125,20.358-20.397
			c0-11.234-9.125-20.346-20.358-20.346C99.008,59.682,89.882,68.795,89.882,80.028z"/>
		<path style="fill:#FFFFFF;" d="M30.564,80.028c0,11.271,9.113,20.397,20.346,20.397c11.271,0,20.396-9.125,20.396-20.397
			c0-11.234-9.125-20.346-20.396-20.346C39.676,59.682,30.564,68.795,30.564,80.028z"/>
		<path style="fill:#FFFFFF;" d="M80.069,7.784c19.308,0,37.46,7.519,51.113,21.172c13.653,13.653,21.172,31.805,21.172,51.113
			s-7.519,37.46-21.172,51.113c-13.653,13.653-31.805,21.172-51.113,21.172s-37.46-7.519-51.113-21.172
			C15.303,117.529,7.784,99.377,7.784,80.069s7.519-37.46,21.172-51.113C42.609,15.303,60.761,7.784,80.069,7.784 M80.069-0.039
			c-44.242,0-80.108,35.865-80.108,80.108s35.865,80.108,80.108,80.108s80.108-35.865,80.108-80.108S124.311-0.039,80.069-0.039
			L80.069-0.039z"/>
	</g>
</g>
<g id="skills" style="display:none;">
	<g style="display:inline;">
		<path style="fill:#FFFFFF;" d="M115.372,91.909c-6.016-4.335-18.534-13.358-27.049-21.874c-5.075-5.075-6.99-9.035-8.389-11.927
			c-0.866-1.791-1.55-3.205-2.666-4.321l-4.755-4.755c1.58-1.604,3.206-3.235,4.888-4.917c0.191-0.191,0.294-0.452,0.286-0.722
			c-0.008-0.246-0.253-6.088-5.747-11.582c-6.081-6.081-9.434-2.871-9.574-2.73c-0.024,0.024-0.047,0.05-0.069,0.077
			c-0.018,0.023-1.731,2.134-4.556,5.103l-2.283-2.282c-0.1-0.11-1.023-1.072-2.802-1.072c-2.015,0-4.26,1.223-6.671,3.634
			c-6.082,6.082-2.87,9.434-2.73,9.574l1.652,1.652c-8.106,6.041-15.425,9.111-21.762,9.111c-0.021,0-0.045,0.001-0.06,0
			c-0.885,0-1.694,0.409-2.221,1.123c-0.534,0.723-0.688,1.629-0.421,2.488c3.832,12.365,17.109,25.85,29.598,30.06
			c0.299,0.101,0.604,0.15,0.905,0.15c0.669,0,1.32-0.244,1.843-0.708c0.754-0.671,1.08-1.662,0.871-2.651
			c-1.594-7.551,0.675-14.836,7.321-23.498L81.479,82.34c2.321,2.321,5.571,4.619,9.335,7.28
			c5.181,3.664,11.629,8.223,17.967,14.562c4.967,4.967,5.743,9.982,6.309,13.645c0.367,2.37,0.656,4.242,1.882,5.467
			c0.959,0.959,2.407,1.446,4.302,1.446c3.554,0,8.407-1.851,10.598-4.042c0.51-0.51,0.727-1.286,0.645-2.307
			C132.032,112.36,120.86,95.866,115.372,91.909z M47.369,35.926c2.53-2.53,4.272-3.061,5.288-3.061c0.91,0,1.351,0.428,1.386,0.464
			l2.339,2.339c-3.279,3.334-6.604,6.325-9.902,8.907l-1.841-1.841C44.619,42.713,42.73,40.565,47.369,35.926z M51.49,86.531
			c-0.109,0.097-0.408,0.308-0.824,0.166C38.903,82.732,25.918,69.55,22.312,57.911c-0.08-0.258-0.034-0.53,0.126-0.747
			c0.155-0.209,0.391-0.329,0.648-0.329c0.001,0,0.001,0,0.002,0c1.625,0.003,3.301-0.185,5.024-0.544
			c2.974,9.807,13.609,20.576,23.124,23.37c-0.09,2.022,0.079,4.041,0.511,6.084C51.836,86.168,51.597,86.435,51.49,86.531z
			 M51.412,77.67c-8.699-2.759-18.619-12.878-21.396-21.836c5.244-1.465,10.914-4.533,16.977-9.182
			c3.821-2.93,7.679-6.399,11.466-10.312c3.059-3.16,4.98-5.487,5.312-5.892c0.232-0.183,2.391-1.648,6.787,2.748
			c4.137,4.137,4.974,8.538,5.137,9.862c-1.812,1.812-3.569,3.572-5.259,5.295c-4.675,4.768-7.761,8.179-10.317,11.403
			C54.987,66.23,52.154,71.999,51.412,77.67z M130.49,119.314c-1.641,1.641-5.829,3.47-9.215,3.47c-0.934,0-2.198-0.152-2.919-0.873
			c-0.773-0.773-1.02-2.366-1.332-4.383c-0.607-3.929-1.44-9.31-6.859-14.729c-6.456-6.456-12.979-11.069-18.221-14.775
			c-3.691-2.61-6.878-4.864-9.081-7.066L62.197,60.291c2.276-2.812,5.022-5.839,8.946-9.863l4.743,4.743
			c0.882,0.882,1.503,2.166,2.288,3.79c1.459,3.017,3.458,7.149,8.767,12.458c8.627,8.627,21.231,17.712,27.289,22.078
			c5.41,3.899,15.788,19.757,16.331,24.952C130.619,119.027,130.527,119.273,130.49,119.314z"/>
		<path style="fill:#FFFFFF;" d="M80.069,0C35.848,0,0,35.848,0,80.069c0,44.221,35.848,80.069,80.069,80.069
			c44.221,0,80.069-35.848,80.069-80.069C160.138,35.848,124.29,0,80.069,0z M133.921,133.921
			c-6.995,6.995-15.14,12.487-24.209,16.323c-9.387,3.97-19.36,5.983-29.643,5.983c-10.283,0-20.256-2.013-29.643-5.983
			c-9.068-3.836-17.213-9.327-24.209-16.323c-6.995-6.995-12.487-15.141-16.323-24.209c-3.97-9.387-5.983-19.36-5.983-29.643
			c0-10.283,2.013-20.256,5.983-29.643c3.836-9.068,9.327-17.213,16.323-24.209c6.995-6.995,15.141-12.487,24.209-16.323
			c9.387-3.97,19.36-5.983,29.643-5.983c10.283,0,20.256,2.013,29.643,5.983c9.068,3.836,17.213,9.327,24.209,16.323
			c6.995,6.995,12.487,15.141,16.323,24.209c3.97,9.387,5.983,19.36,5.983,29.643c0,10.283-2.013,20.256-5.983,29.643
			C146.408,118.78,140.916,126.925,133.921,133.921z"/>
	</g>
</g>
<g id="contact" style="display:none;">
	<g style="display:inline;">
		<path style="fill:#1F556F;" d="M123.847,36.292c-2.835-2.835-5.824-4.6-8.643-5.104c-2.666-0.479-5.061,0.188-6.743,1.872
			c-0.28,0.28-0.56,0.608-0.814,0.988c-4.258,5.199-25.632,31.203-34.014,39.585c-9.282,9.282-40.188,34.507-40.5,34.761
			l0.618,0.758l-0.691-0.691c-2.27,2.27-4.494,7.66,6.104,18.258c0.184,0.184,0.432,0.287,0.691,0.287c0.007,0,0.015,0,0.021,0
			c0.267-0.006,0.52-0.121,0.7-0.317c0.046-0.051,0.786-0.859,2.028-2.213c2.598,2.328,4.919,3.544,6.731,3.544
			c0.921,0,1.711-0.31,2.341-0.94l-0.691-0.691l0.758,0.618c0.254-0.311,25.479-31.217,34.761-40.5
			c8.747-8.747,36.682-31.64,40.139-34.467c0.081-0.056,0.155-0.124,0.232-0.189c0.073-0.06,0.119-0.097,0.129-0.105l-0.002-0.003
			c0.024-0.023,0.051-0.04,0.075-0.064c2.082-2.082,2.513-5.014,1.247-8.479C127.293,40.376,125.335,37.78,123.847,36.292z
			 M39.83,124.607c-6.283-6.517-8.253-11.859-5.406-14.742c1.179-0.963,31.376-25.634,40.591-34.849
			c7.316-7.316,24.381-27.865,31.589-36.618c0.253,2.881,2.08,6.846,7.234,12.182c-4.34,3.864-25.805,23.015-33.024,30.234
			C71.05,90.578,44.48,119.532,39.83,124.607z M85.122,85.123c-9.189,9.189-33.747,39.241-34.841,40.581
			c-0.986,0.959-3.491-0.12-6.351-2.672c8.291-9.028,29.73-32.298,38.266-40.834c7.966-7.966,33.453-30.611,33.709-30.839
			c0.201-0.179,0.32-0.433,0.328-0.702c0.008-0.269-0.096-0.53-0.286-0.72c-3.404-3.404-5.663-6.508-6.715-9.137l1.642-1.642
			c0.201,0.712,0.529,1.503,1.01,2.386c1.125,2.067,2.924,4.406,4.934,6.417c2.344,2.344,4.529,3.821,6.371,4.382
			C115.527,58.637,92.884,77.361,85.122,85.123z M118.201,46.577c-1.074-1.074-2.08-2.242-2.939-3.402l1.015-1.014
			c1.219,2.227,3.918,4.906,5.866,5.942l-0.998,0.998C120.218,48.445,119.22,47.596,118.201,46.577z M123.604,46.61
			c-1.251-0.196-5.647-4.288-6.007-6.358c-0.062-0.36-0.32-0.655-0.668-0.765c-0.097-0.031-0.196-0.046-0.295-0.046
			c-0.255,0-0.505,0.101-0.691,0.287l-1.803,1.803c-0.194-0.312-0.374-0.621-0.538-0.922c-1.073-1.971-1.113-3.066-0.886-3.293
			c0.309-0.31,1.25-1.25,3.654-0.045c1.632,0.818,3.131,2.229,3.7,2.798C122.464,42.462,124.047,45.738,123.604,46.61z
			 M125.714,50.273c-0.033,0.027-0.084,0.069-0.16,0.131c-0.565,0.409-1.509,0.296-2.681-0.266l2.038-2.038
			c0.696-0.696,1.232-2.108-0.164-4.886c-0.77-1.532-2.032-3.267-3.294-4.529c-0.79-0.79-2.387-2.252-4.207-3.164
			c-3.028-1.517-4.888-0.614-5.913,0.411l-2.703,2.703c-0.199-1.359,0.014-2.541,0.66-3.508c0.314-0.383,0.506-0.619,0.576-0.704
			c1.217-1.202,2.988-1.67,4.993-1.309c2.424,0.433,5.053,2.01,7.604,4.561c1.341,1.341,3.102,3.672,4.024,6.195
			C127.483,46.595,127.221,48.748,125.714,50.273z"/>
		<path style="fill:#1F556F;" d="M80.069,0C35.848,0,0,35.848,0,80.069c0,44.221,35.848,80.069,80.069,80.069
			c44.221,0,80.069-35.848,80.069-80.069C160.138,35.848,124.29,0,80.069,0z M133.921,133.921
			c-6.995,6.995-15.14,12.487-24.209,16.323c-9.387,3.97-19.36,5.983-29.643,5.983c-10.283,0-20.256-2.013-29.643-5.983
			c-9.068-3.836-17.213-9.327-24.209-16.323c-6.995-6.995-12.487-15.141-16.323-24.209c-3.97-9.387-5.983-19.36-5.983-29.643
			c0-10.283,2.013-20.256,5.983-29.643c3.836-9.068,9.327-17.213,16.323-24.209c6.995-6.995,15.141-12.487,24.209-16.323
			c9.387-3.97,19.36-5.983,29.643-5.983c10.283,0,20.256,2.013,29.643,5.983c9.068,3.836,17.213,9.327,24.209,16.323
			c6.995,6.995,12.487,15.141,16.323,24.209c3.97,9.387,5.983,19.36,5.983,29.643c0,10.283-2.013,20.256-5.983,29.643
			C146.408,118.78,140.916,126.925,133.921,133.921z"/>
	</g>
</g>
<g id="about_1_">
	<g>
		<path style="fill:#FFFFFF;" d="M112.848,111.398c-0.105-0.184-0.268-0.327-0.462-0.411l-10.031-4.285L85.089,76.798l15.519-26.88
			l0.613,0.354c0.403,0.233,0.861,0.355,1.326,0.355c0.952,0,1.837-0.51,2.311-1.33c0.355-0.614,0.449-1.332,0.264-2.02
			c-0.131-0.489-0.396-0.916-0.756-1.252l7.029-1.883c0.407-0.109,0.698-0.466,0.723-0.886l1.354-22.566
			c0.022-0.37-0.167-0.72-0.487-0.905c-0.321-0.186-0.719-0.173-1.027,0.031L93.093,32.271c-0.352,0.232-0.515,0.663-0.406,1.069
			l1.885,7.035c-0.25-0.076-0.508-0.125-0.771-0.125c-0.952,0-1.837,0.509-2.311,1.33c-0.734,1.271-0.297,2.903,0.975,3.637
			l0.613,0.354L80.069,68.102L67.06,45.57l0.613-0.354c1.271-0.734,1.708-2.366,0.974-3.637c-0.474-0.821-1.359-1.33-2.311-1.33
			c-0.263,0-0.521,0.049-0.771,0.125l1.885-7.035c0.109-0.406-0.054-0.837-0.406-1.069L48.18,19.815
			c-0.309-0.205-0.708-0.217-1.027-0.031c-0.321,0.185-0.51,0.536-0.487,0.905l1.354,22.566c0.025,0.42,0.316,0.777,0.723,0.886
			l7.029,1.883c-0.36,0.336-0.625,0.763-0.756,1.252c-0.185,0.688-0.091,1.406,0.264,2.02c0.474,0.821,1.359,1.331,2.311,1.331
			c0,0,0,0,0,0c0.465,0,0.923-0.123,1.326-0.355l0.613-0.354l15.519,26.88l-17.266,29.904l-10.031,4.285
			c-0.194,0.083-0.357,0.227-0.462,0.411l-10.11,17.511c-0.21,0.364-0.164,0.823,0.115,1.138c0.278,0.314,0.728,0.415,1.116,0.25
			l14.296-6.107l1.86,15.435c0.05,0.417,0.362,0.756,0.775,0.841c0.065,0.013,0.131,0.02,0.196,0.02c0.345,0,0.67-0.183,0.847-0.489
			l10.11-17.511c0.106-0.183,0.149-0.396,0.124-0.606l-1.305-10.829l14.755-25.557l14.755,25.558l-1.305,10.828
			c-0.025,0.21,0.018,0.423,0.124,0.606l10.11,17.511c0.177,0.307,0.502,0.489,0.847,0.489c0.065,0,0.13-0.007,0.196-0.02
			c0.413-0.084,0.725-0.423,0.775-0.841l1.86-15.435l14.296,6.107c0.386,0.164,0.837,0.064,1.116-0.25
			c0.279-0.315,0.326-0.773,0.115-1.138L112.848,111.398z M102.236,117.148l-1.626,13.493l-1.74-3.014l1.626-13.494L102.236,117.148
			z M102.19,113.156l12.498,5.339l1.74,3.013l-12.498-5.338L102.19,113.156z M113.057,115.671l-12.498-5.339l-1.74-3.014
			l12.498,5.338L113.057,115.671z M101.197,42.16l5.692,1.165l-4.814,1.29l-1.721-0.994L101.197,42.16z M102.227,40.374
			l9.046-15.668l-1.039,17.306L102.227,40.374z M100.534,39.396l-5.423-6.115l14.469-9.553L100.534,39.396z M99.503,41.182
			l-0.844,1.461l-1.721-0.994l-1.29-4.814L99.503,41.182z M93.184,42.557c0.125-0.217,0.362-0.352,0.617-0.352
			c0.124,0,0.242,0.031,0.349,0.093l6.905,3.987l0.391,0.226c0,0,0,0,0,0l1.459,0.842c0.162,0.094,0.278,0.247,0.327,0.43
			c0.049,0.184,0.025,0.374-0.068,0.536c-0.187,0.323-0.638,0.447-0.966,0.259l-1.458-0.842c0,0-0.001-0.001-0.001-0.001
			l-5.837-3.37c0,0-0.001,0-0.002-0.001l-1.458-0.842C93.106,43.328,92.99,42.895,93.184,42.557z M58.064,44.614l-4.814-1.29
			l5.692-1.165l0.844,1.461l-0.464,0.268L58.064,44.614z M61.479,42.643l-0.844-1.461l3.855-4.347l-1.29,4.814L61.479,42.643z
			 M59.604,39.396l-9.046-15.668l14.469,9.553L59.604,39.396z M57.911,40.374l-8.007,1.639l-1.039-17.306L57.911,40.374z
			 M57.939,48.578c-0.107,0.062-0.224,0.093-0.348,0.093c-0.256,0-0.492-0.135-0.618-0.353c-0.093-0.162-0.118-0.352-0.068-0.536
			s0.166-0.336,0.327-0.43l1.458-0.842c0,0,0.001,0,0.001-0.001l1.746-1.008l5.551-3.205c0.107-0.062,0.225-0.093,0.349-0.093
			c0.255,0,0.492,0.135,0.617,0.352c0.195,0.338,0.079,0.771-0.259,0.966l-1.458,0.842c0,0-0.001,0-0.001,0l-4.521,2.61
			L57.939,48.578z M61.224,48.94l2.072-1.196l2.072-1.196L78.94,70.057l-1.682,2.915l-1.08,1.871L61.224,48.94z M48.821,112.657
			l12.498-5.339l-1.74,3.013l-12.499,5.339L48.821,112.657z M45.45,118.495l12.499-5.339l-1.74,3.014l-12.498,5.338L45.45,118.495z
			 M59.642,114.134l1.626,13.493l-1.74,3.015l-1.625-13.494L59.642,114.134z M42.08,124.332l12.498-5.339l-1.74,3.013l-12.499,5.339
			L42.08,124.332z M56.158,136.478l-1.626-13.493l1.74-3.014l1.626,13.494L56.158,136.478z M62.898,124.805l-1.626-13.493
			l1.74-3.014l1.626,13.493L62.898,124.805z M64.603,105.15c-0.037-0.305-0.215-0.576-0.482-0.729
			c-0.266-0.154-0.589-0.172-0.873-0.053l-2.467,1.054L77.02,77.296c0.002-0.003,0.004-0.005,0.006-0.008l2.374-4.115l15.372-26.625
			l2.072,1.196l2.072,1.196L80.893,80.155l-1.672,2.893c-0.001,0.002-0.002,0.005-0.003,0.008l-14.294,24.759L64.603,105.15z
			 M81.198,83.538l1.592-2.757l1.171-2.027l15.396,26.667l-2.467-1.054c-0.283-0.12-0.607-0.102-0.873,0.053
			c-0.267,0.154-0.445,0.424-0.482,0.729l-0.321,2.664L81.198,83.538z M97.126,108.297l1.74,3.014l-1.625,13.494l-1.74-3.015
			L97.126,108.297z M103.98,136.478l-1.74-3.014l1.626-13.493l1.74,3.014L103.98,136.478z M107.299,122.007l-1.74-3.013
			l12.498,5.338l1.74,3.014L107.299,122.007z"/>
		<path style="fill:#FFFFFF;" d="M80.069,0C35.848,0,0,35.848,0,80.069c0,44.221,35.848,80.069,80.069,80.069
			c44.221,0,80.069-35.848,80.069-80.069C160.138,35.848,124.29,0,80.069,0z M133.921,133.921
			c-6.995,6.995-15.14,12.487-24.209,16.323c-9.387,3.97-19.36,5.983-29.643,5.983c-10.283,0-20.256-2.013-29.643-5.983
			c-9.068-3.836-17.213-9.327-24.209-16.323c-6.995-6.995-12.487-15.141-16.323-24.209c-3.97-9.387-5.983-19.36-5.983-29.643
			c0-10.283,2.013-20.256,5.983-29.643c3.836-9.068,9.327-17.213,16.323-24.209c6.995-6.995,15.141-12.487,24.209-16.323
			c9.387-3.97,19.36-5.983,29.643-5.983c10.283,0,20.256,2.013,29.643,5.983c9.068,3.836,17.213,9.327,24.209,16.323
			c6.995,6.995,12.487,15.141,16.323,24.209c3.97,9.387,5.983,19.36,5.983,29.643c0,10.283-2.013,20.256-5.983,29.643
			C146.408,118.78,140.916,126.925,133.921,133.921z"/>
	</g>
</g>
<g id="social" style="display:none;">
	<g style="display:inline;">
		<g>
			<g>
				<line style="fill:#1F556F;" x1="55.344" y1="134.466" x2="55.343" y2="134.466"/>
			</g>
			<g>
				<path style="fill:#1F556F;" d="M119.652,71.54l-0.253-1.975c-1.211-9.445-3.714-19.787-6.698-27.665l-0.464-1.225l1.306-0.097
					c0.402-0.03,0.752-0.055,1.109-0.055c8.226,0,14.918,6.692,14.918,14.918c0,3.985-1.552,7.732-4.37,10.549L119.652,71.54z
					 M115.002,42.484c2.623,7.273,4.834,16.338,6.069,24.872l2.747-2.747c2.449-2.448,3.797-5.704,3.797-9.167
					C127.615,48.411,121.989,42.67,115.002,42.484z"/>
			</g>
			<g>
				<path style="fill:#1F556F;" d="M45.486,139.528c-8.226,0-14.918-6.692-14.918-14.918c0-3.985,1.552-7.732,4.37-10.549
					l13.264-13.265l0.69,0.633c2.892,2.654,6.215,4.056,9.612,4.056c2.735,0,5.37-0.878,7.831-2.611l0.693-0.488l0.582,0.617
					c3.598,3.818,7.843,5.88,12.277,5.962l2.3,0.042l-26.15,26.15C53.217,137.975,49.471,139.528,45.486,139.528z M48.274,103.489
					L36.32,115.443c-2.448,2.448-3.796,5.703-3.796,9.166c0,7.147,5.815,12.962,12.962,12.962c3.462,0,6.718-1.348,9.167-3.797
					l23.034-23.034c-3.938-0.583-7.667-2.56-10.922-5.801c-2.599,1.661-5.374,2.501-8.261,2.501
					C54.886,107.441,51.367,106.078,48.274,103.489z"/>
			</g>
			<g>
				<line style="fill:#1F556F;" x1="104.795" y1="134.466" x2="104.795" y2="134.466"/>
			</g>
			<g>
				<path style="fill:#1F556F;" d="M40.575,71.629l-5.637-5.637c-2.818-2.817-4.37-6.564-4.37-10.549
					c0-8.226,6.692-14.918,14.918-14.918l0.147,0.006l1.263,0.089l-0.333,1.203c-2.601,7.692-4.759,18.072-5.774,27.767
					L40.575,71.629z M44.269,42.538c-6.584,0.617-11.746,6.169-11.746,12.904c0,3.463,1.348,6.718,3.797,9.167l2.75,2.75
					C40.108,58.682,42.001,49.642,44.269,42.538z"/>
			</g>
			<g>
				<path style="fill:#1F556F;" d="M114.653,139.528c-3.985,0-7.732-1.552-10.549-4.37l-26.169-26.169l2.336-0.018
					c4.49-0.034,8.792-2.098,12.438-5.968l0.582-0.617l0.693,0.488c2.461,1.732,5.096,2.611,7.831,2.611
					c3.36,0,6.653-1.374,9.523-3.974l0.69-0.625l13.174,13.174c2.818,2.817,4.37,6.564,4.37,10.549
					C129.571,132.835,122.879,139.528,114.653,139.528z M82.479,110.767l23.007,23.007c2.448,2.449,5.704,3.797,9.167,3.797
					c7.147,0,12.962-5.815,12.962-12.962c0-3.462-1.348-6.718-3.796-9.166l-11.873-11.873c-3.069,2.536-6.555,3.871-10.131,3.871
					c-2.888,0-5.663-0.841-8.262-2.501C90.253,108.227,86.471,110.213,82.479,110.767z"/>
			</g>
			<g>
				<path style="fill:#1F556F;" d="M58.503,107.441c-3.895,0-7.676-1.581-10.934-4.571c-5.811-5.332-9.279-14.41-9.279-24.284
					c0-2.559,0.191-5.74,0.554-9.2c1.03-9.831,3.223-20.369,5.867-28.189c3.513-10.389,7.568-15.657,12.053-15.657
					c3.366,0,6.774,3.013,10.132,8.954l0.223,0.394l-0.156,0.424C61.765,49.44,58.66,67.795,58.66,77.378
					c0,10.1,3.345,19.679,8.949,25.625l0.773,0.821l-0.922,0.649C64.662,106.443,61.649,107.441,58.503,107.441z M56.763,27.495
					c-3.454,0-7.076,5.088-10.2,14.327c-2.601,7.692-4.759,18.072-5.774,27.767c-0.355,3.394-0.543,6.505-0.543,8.997
					c0,9.336,3.232,17.875,8.646,22.843c2.892,2.654,6.215,4.056,9.612,4.056c2.395,0,4.712-0.673,6.904-2.004
					c-5.467-6.335-8.703-15.989-8.703-26.104c0-9.528,2.896-27.52,8.266-42.312C62.102,30.111,59.27,27.495,56.763,27.495z"/>
			</g>
			<g>
				<path style="fill:#1F556F;" d="M101.815,107.441c-3.146,0-6.16-0.999-8.957-2.968l-0.922-0.649l0.773-0.821
					c5.604-5.946,8.948-15.526,8.948-25.625c0-10.136-3.31-29.186-8.85-43.52l-0.168-0.436l0.233-0.405
					c2.861-4.962,5.87-7.478,8.942-7.478c4.501,0,8.779,5.271,12.716,15.668c3.034,8.013,5.58,18.521,6.808,28.108
					c0.451,3.516,0.689,6.721,0.689,9.27c0,9.943-3.505,19.055-9.376,24.375C109.416,105.892,105.668,107.441,101.815,107.441z
					 M94.911,103.481c2.191,1.331,4.509,2.004,6.904,2.004c3.36,0,6.653-1.374,9.523-3.974c5.469-4.955,8.734-13.525,8.734-22.926
					c0-2.467-0.232-5.586-0.672-9.021c-1.211-9.445-3.714-19.787-6.698-27.665c-3.517-9.289-7.383-14.405-10.887-14.405
					c-2.217,0-4.637,2.106-7.014,6.099c5.52,14.495,8.812,33.572,8.812,43.783C103.613,87.492,100.377,97.147,94.911,103.481z"/>
			</g>
			<g>
				<path style="fill:#1F556F;" d="M80.159,110.931c-0.072,0-0.143-0.003-0.214-0.007c-5.067-0.096-9.792-2.37-13.76-6.581
					c-5.937-6.3-9.481-16.381-9.481-26.966c0-9.62,2.952-27.869,8.422-42.741c3.202-8.705,8.41-19.081,15.033-19.081
					c5.091,0,9.96,5.92,14.473,17.597c5.622,14.547,8.981,33.909,8.981,44.225c0,10.586-3.544,20.667-9.481,26.966
					c-4.022,4.269-8.811,6.545-13.847,6.583L80.159,110.931z M80.159,17.512c-4.288,0-8.975,6.321-13.197,17.8
					C61.765,49.44,58.66,67.795,58.66,77.378c0,10.1,3.345,19.679,8.949,25.625c3.598,3.818,7.843,5.88,12.277,5.962l0.276,0.01
					l0.104-0.004c4.495-0.034,8.796-2.098,12.443-5.968c5.604-5.946,8.948-15.526,8.948-25.625c0-10.136-3.31-29.186-8.85-43.52
					C88.734,23.317,84.242,17.512,80.159,17.512z"/>
			</g>
			<g>
				<path style="fill:#1F556F;" d="M45.486,115.484c5.032,0,9.125,4.094,9.125,9.125c0,5.032-4.094,9.125-9.125,9.125
					c-5.032,0-9.125-4.094-9.125-9.125C36.36,119.577,40.454,115.484,45.486,115.484 M45.486,113.528
					c-6.12,0-11.081,4.961-11.081,11.081c0,6.12,4.961,11.081,11.081,11.081c6.12,0,11.081-4.961,11.081-11.081
					C56.567,118.489,51.606,113.528,45.486,113.528L45.486,113.528z"/>
			</g>
			<g>
				<path style="fill:#1F556F;" d="M114.653,115.484c5.032,0,9.125,4.094,9.125,9.125c0,5.032-4.094,9.125-9.125,9.125
					c-5.032,0-9.125-4.094-9.125-9.125C105.527,119.577,109.621,115.484,114.653,115.484 M114.653,113.528
					c-6.12,0-11.081,4.961-11.081,11.081c0,6.12,4.961,11.081,11.081,11.081c6.12,0,11.081-4.961,11.081-11.081
					C125.734,118.489,120.772,113.528,114.653,113.528L114.653,113.528z"/>
			</g>
		</g>
		<g>
			<path style="fill:#1F556F;" d="M80.069,3.912c10.283,0,20.256,2.013,29.643,5.983c9.068,3.836,17.213,9.327,24.209,16.323
				c6.995,6.995,12.487,15.14,16.323,24.209c3.97,9.387,5.983,19.36,5.983,29.643s-2.013,20.256-5.983,29.643
				c-3.836,9.068-9.327,17.213-16.323,24.209c-6.995,6.995-15.14,12.487-24.209,16.323c-9.387,3.97-19.36,5.983-29.643,5.983
				s-20.256-2.013-29.643-5.983c-9.068-3.836-17.213-9.327-24.209-16.323c-6.995-6.995-12.487-15.14-16.323-24.209
				c-3.97-9.387-5.983-19.36-5.983-29.643s2.013-20.256,5.983-29.643c3.836-9.068,9.327-17.213,16.323-24.209
				c6.995-6.995,15.14-12.487,24.209-16.323C59.813,5.925,69.786,3.912,80.069,3.912 M80.069,0C35.848,0,0,35.848,0,80.069
				s35.848,80.069,80.069,80.069s80.069-35.848,80.069-80.069S124.29,0,80.069,0L80.069,0z"/>
		</g>
	</g>
</g>
</svg>
