<?xml version="1.0" encoding="utf-8"?>
<!-- Generator: Adobe Illustrator 18.1.0, SVG Export Plug-In . SVG Version: 6.00 Build 0)  -->
<!DOCTYPE svg PUBLIC "-//W3C//DTD SVG 1.1//EN" "http://www.w3.org/Graphics/SVG/1.1/DTD/svg11.dtd">
<svg version="1.1" id="Calque_1" xmlns="http://www.w3.org/2000/svg" xmlns:xlink="http://www.w3.org/1999/xlink" x="0px" y="0px"
	 viewBox="279.6 403 36 35.9" enable-background="new 279.6 403 36 35.9" xml:space="preserve">
<g>
	<path fill="#1A617E" d="M299,403.1c-0.4,0-0.9-0.1-1.4-0.1c-10.3,0-18.6,8.7-17.9,19.1c0.6,8.9,7.8,16.2,16.8,16.8
		c0.9,0.1,1.7,0,2.5,0c9.3-0.7,16.5-8.4,16.5-17.9C315.6,411.5,308.3,403.8,299,403.1z M282.2,421c0-7.5,5.4-13.8,12.6-15.2
		c0.8-0.1,1.5,0.4,1.5,1.2v27.8c0,0.8-0.7,1.4-1.5,1.2C287.7,434.8,282.2,428.5,282.2,421z"/>
</g>
</svg>
