<?xml version="1.0" encoding="utf-8"?>
<!-- Generator: Adobe Illustrator 18.1.0, SVG Export Plug-In . SVG Version: 6.00 Build 0)  -->
<!DOCTYPE svg PUBLIC "-//W3C//DTD SVG 1.1//EN" "http://www.w3.org/Graphics/SVG/1.1/DTD/svg11.dtd">
<svg version="1.1" id="Calque_1" xmlns="http://www.w3.org/2000/svg" xmlns:xlink="http://www.w3.org/1999/xlink" x="0px" y="0px"
	 viewBox="0 123.3 595.3 595.3" enable-background="new 0 123.3 595.3 595.3" xml:space="preserve">
<g>
	<path fill="#1A617E" d="M320.1,124.3c-7.5-0.6-14.9-0.9-22.5-0.9C127,123.3-10.1,267,0.6,439.9c9.2,148.3,129.9,268.9,278,278.1
		c165.5,10.3,304.1-114.8,315.7-274.9c0.6-7.4,0.9-14.7,0.9-22.2C595.3,264.1,474,135.6,320.1,124.3z M528.2,441.9
		c13.1,0,23.3,11.8,20.9,24.6C528.2,577.7,436.3,662.8,326.9,675C172.9,692.1,42,571.6,42,421c0-125.3,90.4-229.7,209.4-251.4
		c13.1-2.4,25.2,7.3,25.2,20.6v230.7c0,11.7,9.5,21,21,21L528.2,441.9z"/>
</g>
</svg>
