<?xml version="1.0" encoding="utf-8"?>
<!-- Generator: Adobe Illustrator 18.1.0, SVG Export Plug-In . SVG Version: 6.00 Build 0)  -->
<!DOCTYPE svg PUBLIC "-//W3C//DTD SVG 1.1//EN" "http://www.w3.org/Graphics/SVG/1.1/DTD/svg11.dtd">
<svg version="1.1" id="Calque_1" xmlns="http://www.w3.org/2000/svg" xmlns:xlink="http://www.w3.org/1999/xlink" x="0px" y="0px"
	 viewBox="-109.9 114.5 595.3 595.8" enable-background="new -109.9 114.5 595.3 595.8" xml:space="preserve">
<g id="linkdin" display="none">
	<g display="inline">
		<path fill="#5086BC" d="M232.8,530.5h-52.8V358.3h52.8V530.5z M206.4,336.3c-19.2,0-28.8-8.9-28.8-26.5c0-7.4,2.7-13.7,8.2-18.7
			c5.5-5.2,12.3-7.8,20.5-7.8c19.1,0,28.6,8.9,28.6,26.5C235,327.5,225.5,336.3,206.4,336.3L206.4,336.3z M429.3,530.5h-54.2v-96
			c0-25.1-8.9-37.5-26.5-37.5c-13.9,0-23.1,6.9-27.6,21c-1.3,2.1-2.1,6.6-2.1,13.2v99.3h-54.2v-117c0-26.4-0.3-44.8-1-55.1H310
			l3.4,23.1c12.1-18.2,29.8-27.5,54-27.5c18.4,0,33.3,6.5,44.8,19.2c11.5,13,17.1,31.5,17.1,55.8L429.3,530.5L429.3,530.5z"/>
		<path fill="#5086BC" d="M298,152.4c71.8,0,139.4,28,190.2,78.8S567,349.5,567,421.3s-28,139.4-78.8,190.2S369.9,690.3,298,690.3
			s-139.4-28-190.2-78.8S29.1,493.2,29.1,421.3s28-139.4,78.8-190.2S226.2,152.4,298,152.4 M298,123.3c-164.6,0-298,133.4-298,298
			s133.4,298,298,298s298-133.4,298-298S462.6,123.3,298,123.3L298,123.3z"/>
	</g>
</g>
<g id="behance" display="none">
	<g display="inline">
		<path d="M282.4,347.6c5.5,7.7,8.3,16.9,8.3,27.7c0,11.1-2.8,20-8.3,26.8c-3.1,3.8-7.7,7.2-13.7,10.3c9.2,3.4,16.1,8.7,20.7,16
			c4.7,7.4,7,16.2,7,26.6c0,10.8-2.7,20.4-8,28.9c-3.4,5.7-7.6,10.4-12.7,14.4c-5.7,4.4-12.5,7.4-20.3,9.1
			c-7.8,1.6-16.3,2.4-25.4,2.4h-81V328.2h86.8C257.7,328.5,273.3,335,282.4,347.6L282.4,347.6z M184.9,359.8v40h43.7
			c7.8,0,14.1-1.5,19-4.5c4.8-3,7.3-8.3,7.3-16c0-8.5-3.2-14-9.6-16.8c-5.5-1.9-12.6-2.8-21.2-2.8H184.9z M184.9,430v48.4h43.6
			c7.8,0,13.9-1.1,18.2-3.2c7.9-4,11.8-11.5,11.8-22.7c0-9.5-3.8-15.9-11.5-19.5c-4.3-2-10.2-3-17.9-3L184.9,430L184.9,430z"/>
		<path d="M412.3,378.2c9.3,4.2,16.9,10.8,23,19.9c5.4,8,8.9,17.3,10.6,27.8c0.9,6.1,1.3,15,1.1,26.6h-96.7
			c0.5,13.5,5.2,23,13.9,28.4c5.3,3.4,11.7,5,19.1,5c7.9,0,14.4-2.1,19.3-6.2c2.7-2.2,5.1-5.3,7.2-9.2h35.4
			c-0.9,7.9-5.2,16.1-12.9,24.3c-11.9,13-28.6,19.6-50,19.6c-17.7,0-33.2-5.5-46.8-16.5c-13.5-11-20.2-28.9-20.2-53.8
			c0-23.2,6.1-41.1,18.3-53.5c12.2-12.4,28-18.7,47.5-18.7C392.7,371.9,403.1,374.1,412.3,378.2L412.3,378.2z M360.4,408.6
			c-4.9,5.1-8,12.1-9.2,20.8H411c-0.6-9.4-3.7-16.5-9.3-21.3c-5.5-4.8-12.4-7.2-20.6-7.2C372.2,401,365.3,403.5,360.4,408.6
			L360.4,408.6z"/>
		<rect x="335.3" y="346.8" width="93.1" height="18.6"/>
		<path d="M298,152.4c71.8,0,139.4,28,190.2,78.8S567,349.5,567,421.3s-28,139.4-78.8,190.2S369.9,690.3,298,690.3
			s-139.4-28-190.2-78.8S29.1,493.2,29.1,421.3s28-139.4,78.8-190.2S226.2,152.4,298,152.4 M298,123.3c-164.6,0-298,133.4-298,298
			s133.4,298,298,298s298-133.4,298-298S462.6,123.3,298,123.3L298,123.3z"/>
	</g>
</g>
<g id="vimeo" display="none">
	<g id="vimeo_1_" display="inline">
		<g>
			<g id="Layer_1">
				<g>
					<path fill="#69B5DE" d="M379.6,326.7c-17,0-32.7,7.9-47.4,23.7c-10.3,10.3-16.6,22.5-18.7,36.5c6.9-4.3,12.8-6.5,17.9-6.5
						c5.3,0,9.6,2.3,13,7c6.6,9.2,6.2,20.8-1.1,34.8c-16.2,30.9-28,46.4-35.3,46.4c-5.2,0-11.8-17.3-19.9-51.9
						c-1.4-5.1-2.9-12.5-4.4-22.1c-1.5-9.5-2.9-17.8-4.4-24.8c-1.5-7-3.7-14.2-6.6-21.5c-3-7.3-6.6-12.7-11-16
						c-3.1-2.3-6.7-3.4-10.8-3.4c-1.8,0-3.7,0.2-5.7,0.7c-9.6,2.2-20.6,8.1-33.1,17.7c-12.6,9.5-22.8,18.7-30.9,27.6L170,388
						l10,13.2c1.5-1.5,3.3-3,5.5-4.4c2.2-1.5,6.3-3.3,12.2-5.5c2.5-0.9,4.7-1.4,6.3-1.4c2.3,0,3.8,0.8,4.7,2.5
						c2.2,3,9,23.7,20.4,62.4c11.5,38.7,18.6,60.9,21.5,66.8c5.2,10.3,12.2,18.2,21,23.7c4.3,2.6,9,4,14.1,4
						c5.5,0,11.5-1.6,17.9-4.6c19.9-13.2,42.7-35.3,68.5-66.2c25.8-30.9,41.6-63.7,47.5-98.2c5.2-30.2-3.6-47.5-26.5-51.9
						C388.4,327.2,384,326.7,379.6,326.7z"/>
				</g>
			</g>
		</g>
		<g>
			<path fill="#69B5DE" d="M298,152.4c71.8,0,139.4,28,190.2,78.8S567,349.5,567,421.3s-28,139.4-78.8,190.2S369.9,690.3,298,690.3
				s-139.4-28-190.2-78.8S29.1,493.2,29.1,421.3s28-139.4,78.8-190.2S226.2,152.4,298,152.4 M298,123.3c-164.6,0-298,133.4-298,298
				s133.4,298,298,298s298-133.4,298-298S462.6,123.3,298,123.3L298,123.3z"/>
		</g>
	</g>
</g>
<g id="flick" display="none">
	<g display="inline">
		<path fill="#C72F7D" d="M334.6,421.2c0,41.9,33.9,75.9,75.9,75.9c41.8,0,75.7-33.9,75.7-75.9c0-41.8-33.9-75.7-75.7-75.7
			C368.5,345.5,334.6,379.4,334.6,421.2z"/>
		<path fill="#4666AB" d="M113.9,421.2c0,41.9,33.9,75.9,75.7,75.9c41.9,0,75.9-33.9,75.9-75.9c0-41.8-33.9-75.7-75.9-75.7
			C147.8,345.5,113.9,379.4,113.9,421.2z"/>
		<path fill="#FFFFFF" d="M298,152.4c71.8,0,139.4,28,190.2,78.8S567,349.5,567,421.3s-28,139.4-78.8,190.2S369.9,690.3,298,690.3
			s-139.4-28-190.2-78.8S29.1,493.2,29.1,421.3s28-139.4,78.8-190.2S226.2,152.4,298,152.4 M298,123.3c-164.6,0-298,133.4-298,298
			s133.4,298,298,298s298-133.4,298-298S462.6,123.3,298,123.3L298,123.3z"/>
	</g>
</g>
<g id="skills" display="none">
	<g display="inline">
		<path fill="#FFFFFF" d="M429.4,465.4c-22.4-16.1-69-49.7-100.6-81.4c-18.9-18.9-26-33.6-31.2-44.4c-3.2-6.7-5.8-11.9-9.9-16.1
			l-17.7-17.7c5.9-6,11.9-12,18.2-18.3c0.7-0.7,1.1-1.7,1.1-2.7c0-0.9-0.9-22.7-21.4-43.1c-22.6-22.6-35.1-10.7-35.6-10.2
			c-0.1,0.1-0.2,0.2-0.3,0.3c-0.1,0.1-6.4,7.9-17,19l-8.5-8.5c-0.4-0.4-3.8-4-10.4-4c-7.5,0-15.8,4.6-24.8,13.5
			c-22.6,22.6-10.7,35.1-10.2,35.6l6.1,6.1c-30.2,22.5-57.4,33.9-81,33.9c-0.1,0-0.2,0-0.2,0c-3.3,0-6.3,1.5-8.3,4.2
			c-2,2.7-2.6,6.1-1.6,9.3c14.3,46,63.7,96.2,110.1,111.8c1.1,0.4,2.2,0.6,3.4,0.6c2.5,0,4.9-0.9,6.9-2.6c2.8-2.5,4-6.2,3.2-9.9
			c-5.9-28.1,2.5-55.2,27.2-87.4l76.3,76.3c8.6,8.6,20.7,17.2,34.7,27.1c19.3,13.6,43.3,30.6,66.8,54.2
			c18.5,18.5,21.4,37.1,23.5,50.8c1.4,8.8,2.4,15.8,7,20.3c3.6,3.6,9,5.4,16,5.4c13.2,0,31.3-6.9,39.4-15c1.9-1.9,2.7-4.8,2.4-8.6
			C491.4,541.5,449.8,480.1,429.4,465.4z M176.4,257.1c9.4-9.4,15.9-11.4,19.7-11.4c3.4,0,5,1.6,5.2,1.7l8.7,8.7
			c-12.2,12.4-24.6,23.5-36.8,33.1l-6.8-6.8C166.1,282.4,159.1,274.4,176.4,257.1z M191.7,445.4c-0.4,0.4-1.5,1.1-3.1,0.6
			c-43.8-14.8-92.1-63.8-105.5-107.1c-0.3-1-0.1-2,0.5-2.8c0.6-0.8,1.5-1.2,2.4-1.2c0,0,0,0,0,0c6,0,12.3-0.7,18.7-2
			c11.1,36.5,50.6,76.6,86,86.9c-0.3,7.5,0.3,15,1.9,22.6C193,444,192.1,445,191.7,445.4z M191.4,412.4
			c-32.4-10.3-69.3-47.9-79.6-81.2c19.5-5.5,40.6-16.9,63.2-34.2c14.2-10.9,28.6-23.8,42.7-38.4c11.4-11.8,18.5-20.4,19.8-21.9
			c0.9-0.7,8.9-6.1,25.3,10.2c15.4,15.4,18.5,31.8,19.1,36.7c-6.7,6.7-13.3,13.3-19.6,19.7c-17.4,17.7-28.9,30.4-38.4,42.4
			C204.7,369.9,194.2,391.3,191.4,412.4z M485.6,567.4c-6.1,6.1-21.7,12.9-34.3,12.9c-3.5,0-8.2-0.6-10.9-3.2
			c-2.9-2.9-3.8-8.8-5-16.3c-2.3-14.6-5.4-34.6-25.5-54.8c-24-24-48.3-41.2-67.8-55c-13.7-9.7-25.6-18.1-33.8-26.3l-76.9-76.9
			c8.5-10.5,18.7-21.7,33.3-36.7l17.6,17.6c3.3,3.3,5.6,8.1,8.5,14.1c5.4,11.2,12.9,26.6,32.6,46.4c32.1,32.1,79,65.9,101.5,82.1
			c20.1,14.5,58.7,73.5,60.8,92.8C486.1,566.3,485.8,567.2,485.6,567.4z"/>
		<path fill="#FFFFFF" d="M298,123.5C133.5,123.5,0.1,256.8,0.1,421.3S133.5,719.2,298,719.2s297.9-133.4,297.9-297.9
			S462.6,123.5,298,123.5z M498.4,621.7c-26,26-56.3,46.5-90.1,60.7c-34.9,14.8-72,22.3-110.3,22.3s-75.4-7.5-110.3-22.3
			c-33.7-14.3-64-34.7-90.1-60.7c-26-26-46.5-56.3-60.7-90.1c-14.8-34.9-22.3-72-22.3-110.3S22.2,346,37,311.1
			c14.3-33.7,34.7-64,60.7-90.1c26-26,56.3-46.5,90.1-60.7c34.9-14.8,72-22.3,110.3-22.3s75.4,7.5,110.3,22.3
			c33.7,14.3,64,34.7,90.1,60.7c26,26,46.5,56.3,60.7,90.1c14.8,34.9,22.3,72,22.3,110.3s-7.5,75.4-22.3,110.3
			C544.9,565.4,524.4,595.7,498.4,621.7z"/>
	</g>
</g>
<g id="contact" display="none">
	<g display="inline">
		<path fill="#FFFFFF" d="M460.9,258.5c-10.5-10.5-21.7-17.1-32.2-19c-9.9-1.8-18.8,0.7-25.1,7c-1,1-2.1,2.3-3,3.7
			c-15.8,19.3-95.4,116.1-126.5,147.3c-34.5,34.5-149.5,128.4-150.7,129.3l2.3,2.8l-2.6-2.6c-8.4,8.4-16.7,28.5,22.7,67.9
			c0.7,0.7,1.6,1.1,2.6,1.1c0,0,0.1,0,0.1,0c1,0,1.9-0.5,2.6-1.2c0.2-0.2,2.9-3.2,7.5-8.2c9.7,8.7,18.3,13.2,25,13.2
			c3.4,0,6.4-1.2,8.7-3.5l-2.6-2.6l2.8,2.3c0.9-1.2,94.8-116.1,129.3-150.7c32.5-32.5,136.5-117.7,149.3-128.2
			c0.3-0.2,0.6-0.5,0.9-0.7c0.3-0.2,0.4-0.4,0.5-0.4l0,0c0.1-0.1,0.2-0.1,0.3-0.2c7.7-7.7,9.3-18.7,4.6-31.5
			C473.7,273.7,466.5,264,460.9,258.5z M148.3,587c-23.4-24.2-30.7-44.1-20.1-54.8c4.4-3.6,116.7-95.4,151-129.7
			c27.2-27.2,90.7-103.7,117.5-136.2c0.9,10.7,7.7,25.5,26.9,45.3c-16.1,14.4-96,85.6-122.9,112.5
			C264.5,460.4,165.6,568.2,148.3,587z M316.8,440.1c-34.2,34.2-125.6,146-129.6,151c-3.7,3.6-13-0.4-23.6-9.9
			C194.4,547.6,274.2,461,306,429.3c29.6-29.6,124.5-113.9,125.4-114.7c0.7-0.7,1.2-1.6,1.2-2.6c0-1-0.4-2-1.1-2.7
			c-12.7-12.7-21.1-24.2-25-34l6.1-6.1c0.7,2.6,2,5.6,3.8,8.9c4.2,7.7,10.9,16.4,18.4,23.9c8.7,8.7,16.9,14.2,23.7,16.3
			C430,341.6,345.7,411.3,316.8,440.1z M439.9,296.7c-4-4-7.7-8.3-10.9-12.7l3.8-3.8c4.5,8.3,14.6,18.3,21.8,22.1l-3.7,3.7
			C447.4,303.7,443.7,300.5,439.9,296.7z M460,296.9c-4.7-0.7-21-16-22.3-23.7c-0.2-1.3-1.2-2.4-2.5-2.8c-0.4-0.1-0.7-0.2-1.1-0.2
			c-0.9,0-1.9,0.4-2.6,1.1l-6.7,6.7c-0.7-1.2-1.4-2.3-2-3.4c-4-7.3-4.1-11.4-3.3-12.3c1.1-1.2,4.7-4.7,13.6-0.2
			c6.1,3,11.6,8.3,13.8,10.4C455.8,281.4,461.7,293.6,460,296.9z M467.9,310.5c-0.1,0.1-0.3,0.3-0.6,0.5c-2.1,1.5-5.6,1.1-10-1
			l7.6-7.6c2.6-2.6,4.6-7.8-0.6-18.2c-2.9-5.7-7.6-12.2-12.3-16.9c-2.9-2.9-8.9-8.4-15.7-11.8c-11.3-5.6-18.2-2.3-22,1.5l-10.1,10.1
			c-0.7-5.1,0.1-9.5,2.5-13.1c1.2-1.4,1.9-2.3,2.1-2.6c4.5-4.5,11.1-6.2,18.6-4.9c9,1.6,18.8,7.5,28.3,17c5,5,11.5,13.7,15,23
			C474.4,296.8,473.5,304.8,467.9,310.5z"/>
		<path fill="#FFFFFF" d="M298,123.5C133.5,123.5,0.1,256.8,0.1,421.3S133.5,719.2,298,719.2s297.9-133.4,297.9-297.9
			S462.6,123.5,298,123.5z M498.4,621.7c-26,26-56.3,46.5-90.1,60.7c-34.9,14.8-72,22.3-110.3,22.3s-75.4-7.5-110.3-22.3
			c-33.7-14.3-64-34.7-90.1-60.7c-26-26-46.5-56.3-60.7-90.1c-14.8-34.9-22.3-72-22.3-110.3S22.2,346,37,311.1
			c14.3-33.7,34.7-64,60.7-90.1c26-26,56.3-46.5,90.1-60.7c34.9-14.8,72-22.3,110.3-22.3s75.4,7.5,110.3,22.3
			c33.7,14.3,64,34.7,90.1,60.7c26,26,46.5,56.3,60.7,90.1c14.8,34.9,22.3,72,22.3,110.3s-7.5,75.4-22.3,110.3
			C544.9,565.4,524.4,595.7,498.4,621.7z"/>
	</g>
</g>
<g id="about_1_" display="none">
	<g display="inline">
		<path fill="#FFFFFF" d="M420,537.9c-0.4-0.7-1-1.2-1.7-1.5L381,520.4l-64.2-111.3l57.7-100l2.3,1.3c1.5,0.9,3.2,1.3,4.9,1.3
			c3.5,0,6.8-1.9,8.6-4.9c1.3-2.3,1.7-5,1-7.5c-0.5-1.8-1.5-3.4-2.8-4.7l26.2-7c1.5-0.4,2.6-1.7,2.7-3.3l5-84
			c0.1-1.4-0.6-2.7-1.8-3.4c-1.2-0.7-2.7-0.6-3.8,0.1l-70.2,46.3c-1.3,0.9-1.9,2.5-1.5,4l7,26.2c-0.9-0.3-1.9-0.5-2.9-0.5
			c-3.5,0-6.8,1.9-8.6,4.9c-2.7,4.7-1.1,10.8,3.6,13.5l2.3,1.3L298,376.8L249.6,293l2.3-1.3c4.7-2.7,6.4-8.8,3.6-13.5
			c-1.8-3.1-5.1-4.9-8.6-4.9c-1,0-1.9,0.2-2.9,0.5l7-26.2c0.4-1.5-0.2-3.1-1.5-4l-70.2-46.3c-1.1-0.8-2.6-0.8-3.8-0.1
			c-1.2,0.7-1.9,2-1.8,3.4l5,84c0.1,1.6,1.2,2.9,2.7,3.3l26.2,7c-1.3,1.3-2.3,2.8-2.8,4.7c-0.7,2.6-0.3,5.2,1,7.5
			c1.8,3.1,5.1,5,8.6,5l0,0c1.7,0,3.4-0.5,4.9-1.3l2.3-1.3l57.7,100l-64.2,111.3l-37.3,15.9c-0.7,0.3-1.3,0.8-1.7,1.5l-37.6,65.1
			c-0.8,1.4-0.6,3.1,0.4,4.2c1,1.2,2.7,1.5,4.2,0.9l53.2-22.7l6.9,57.4c0.2,1.6,1.3,2.8,2.9,3.1c0.2,0,0.5,0.1,0.7,0.1
			c1.3,0,2.5-0.7,3.2-1.8l37.6-65.1c0.4-0.7,0.6-1.5,0.5-2.3l-4.9-40.3l54.9-95.1l54.9,95.1l-4.9,40.3c-0.1,0.8,0.1,1.6,0.5,2.3
			l37.6,65.1c0.7,1.1,1.9,1.8,3.2,1.8c0.2,0,0.5,0,0.7-0.1c1.5-0.3,2.7-1.6,2.9-3.1l6.9-57.4l53.2,22.7c1.4,0.6,3.1,0.2,4.2-0.9
			c1-1.2,1.2-2.9,0.4-4.2L420,537.9z M380.5,559.3l-6,50.2l-6.5-11.2l6-50.2L380.5,559.3z M380.3,544.4l46.5,19.9l6.5,11.2
			l-46.5-19.9L380.3,544.4z M420.8,553.8l-46.5-19.9l-6.5-11.2l46.5,19.9L420.8,553.8z M376.6,280.3l21.2,4.3l-17.9,4.8l-6.4-3.7
			L376.6,280.3z M380.5,273.7l33.7-58.3l-3.9,64.4L380.5,273.7z M374.2,270L354,247.3l53.8-35.5L374.2,270z M370.3,276.7l-3.1,5.4
			l-6.4-3.7l-4.8-17.9L370.3,276.7z M346.8,281.8c0.5-0.8,1.3-1.3,2.3-1.3c0.5,0,0.9,0.1,1.3,0.3l25.7,14.8l1.5,0.8l0,0l5.4,3.1
			c0.6,0.3,1,0.9,1.2,1.6c0.2,0.7,0.1,1.4-0.3,2c-0.7,1.2-2.4,1.7-3.6,1l-5.4-3.1l0,0l-21.7-12.5c0,0,0,0,0,0l-5.4-3.1
			C346.5,284.7,346.1,283,346.8,281.8z M216.2,289.4l-17.9-4.8l21.2-4.3l3.1,5.4l-1.7,1L216.2,289.4z M228.9,282.1l-3.1-5.4
			l14.3-16.2l-4.8,17.9L228.9,282.1z M221.9,270l-33.7-58.3l53.8,35.5L221.9,270z M215.6,273.7l-29.8,6.1l-3.9-64.4L215.6,273.7z
			 M215.7,304.2c-0.4,0.2-0.8,0.3-1.3,0.3c-1,0-1.8-0.5-2.3-1.3c-0.3-0.6-0.4-1.3-0.3-2s0.6-1.3,1.2-1.6l5.4-3.1c0,0,0,0,0,0
			l6.5-3.8l20.7-11.9c0.4-0.2,0.8-0.3,1.3-0.3c0.9,0,1.8,0.5,2.3,1.3c0.7,1.3,0.3,2.9-1,3.6l-5.4,3.1h0l-16.8,9.7L215.7,304.2z
			 M227.9,305.5l7.7-4.4l7.7-4.4l50.5,87.5l-6.3,10.8l-4,7L227.9,305.5z M181.8,542.6l46.5-19.9l-6.5,11.2l-46.5,19.9L181.8,542.6z
			 M169.2,564.3l46.5-19.9l-6.5,11.2l-46.5,19.9L169.2,564.3z M222,548.1l6,50.2l-6.5,11.2l-6-50.2L222,548.1z M156.7,586l46.5-19.9
			l-6.5,11.2l-46.5,19.9L156.7,586z M209.1,631.2l-6-50.2l6.5-11.2l6,50.2L209.1,631.2z M234.2,587.8l-6-50.2l6.5-11.2l6,50.2
			L234.2,587.8z M240.5,514.7c-0.1-1.1-0.8-2.1-1.8-2.7c-1-0.6-2.2-0.6-3.2-0.2l-9.2,3.9L286.7,411c0,0,0,0,0,0l8.8-15.3l57.2-99.1
			l7.7,4.4l7.7,4.4l-67.1,116.1l-6.2,10.8c0,0,0,0,0,0l-53.2,92.1L240.5,514.7z M302.2,434.2l5.9-10.3l4.4-7.5l57.3,99.2l-9.2-3.9
			c-1.1-0.4-2.3-0.4-3.2,0.2c-1,0.6-1.7,1.6-1.8,2.7l-1.2,9.9L302.2,434.2z M361.5,526.4l6.5,11.2l-6,50.2l-6.5-11.2L361.5,526.4z
			 M387,631.2l-6.5-11.2l6-50.2l6.5,11.2L387,631.2z M399.4,577.4l-6.5-11.2l46.5,19.9l6.5,11.2L399.4,577.4z"/>
		<path fill="#FFFFFF" d="M298,123.5C133.5,123.5,0.1,256.8,0.1,421.3S133.5,719.2,298,719.2s297.9-133.4,297.9-297.9
			S462.6,123.5,298,123.5z M498.4,621.7c-26,26-56.3,46.5-90.1,60.7c-34.9,14.8-72,22.3-110.3,22.3s-75.4-7.5-110.3-22.3
			c-33.7-14.3-64-34.7-90.1-60.7c-26-26-46.5-56.3-60.7-90.1c-14.8-34.9-22.3-72-22.3-110.3S22.2,346,37,311.1
			c14.3-33.7,34.7-64,60.7-90.1c26-26,56.3-46.5,90.1-60.7c34.9-14.8,72-22.3,110.3-22.3s75.4,7.5,110.3,22.3
			c33.7,14.3,64,34.7,90.1,60.7c26,26,46.5,56.3,60.7,90.1c14.8,34.9,22.3,72,22.3,110.3s-7.5,75.4-22.3,110.3
			C544.9,565.4,524.4,595.7,498.4,621.7z"/>
	</g>
</g>
<g id="social">
	<g>
		<g>
			<g>
				<line fill="none" x1="96.1" y1="614.7" x2="96.1" y2="614.7"/>
			</g>
			<g>
				<path fill="#FFFFFF" d="M335.4,380.6l-0.9-7.3c-4.5-35.1-13.8-73.6-24.9-102.9l-1.7-4.6l4.9-0.4c1.5-0.1,2.8-0.2,4.1-0.2
					c30.6,0,55.5,24.9,55.5,55.5c0,14.8-5.8,28.8-16.3,39.2L335.4,380.6z M318.1,272.5c9.8,27.1,18,60.8,22.6,92.5l10.2-10.2
					c9.1-9.1,14.1-21.2,14.1-34.1C365,294.6,344.1,273.2,318.1,272.5z"/>
			</g>
			<g>
				<path fill="#FFFFFF" d="M59.4,633.6c-30.6,0-55.5-24.9-55.5-55.5c0-14.8,5.8-28.8,16.3-39.2l49.3-49.4l2.6,2.4
					c10.8,9.9,23.1,15.1,35.8,15.1c10.2,0,20-3.3,29.1-9.7l2.6-1.8l2.2,2.3c13.4,14.2,29.2,21.9,45.7,22.2l8.6,0.2l-97.3,97.3
					C88.2,627.8,74.2,633.6,59.4,633.6z M69.8,499.5L25.3,544c-9.1,9.1-14.1,21.2-14.1,34.1c0,26.6,21.6,48.2,48.2,48.2
					c12.9,0,25-5,34.1-14.1l85.7-85.7c-14.7-2.2-28.5-9.5-40.6-21.6c-9.7,6.2-20,9.3-30.7,9.3C94.4,514.2,81.3,509.1,69.8,499.5z"/>
			</g>
			<g>
				<line fill="none" x1="280.1" y1="614.7" x2="280.1" y2="614.7"/>
			</g>
			<g>
				<path fill="#FFFFFF" d="M41.2,380.9l-21-21C9.7,349.5,3.9,335.5,3.9,320.7c0-30.6,24.9-55.5,55.5-55.5l0.5,0l4.7,0.3l-1.2,4.5
					c-9.7,28.6-17.7,67.2-21.5,103.3L41.2,380.9z M54.9,272.7c-24.5,2.3-43.7,23-43.7,48c0,12.9,5,25,14.1,34.1l10.2,10.2
					C39.4,332.8,46.5,299.1,54.9,272.7z"/>
			</g>
			<g>
				<path fill="#FFFFFF" d="M316.8,633.6c-14.8,0-28.8-5.8-39.2-16.3l-97.4-97.4l8.7-0.1c16.7-0.1,32.7-7.8,46.3-22.2l2.2-2.3
					l2.6,1.8c9.2,6.4,19,9.7,29.1,9.7c12.5,0,24.8-5.1,35.4-14.8l2.6-2.3l49,49c10.5,10.5,16.3,24.4,16.3,39.2
					C372.3,608.7,347.4,633.6,316.8,633.6z M197.1,526.6l85.6,85.6c9.1,9.1,21.2,14.1,34.1,14.1c26.6,0,48.2-21.6,48.2-48.2
					c0-12.9-5-25-14.1-34.1l-44.2-44.2c-11.4,9.4-24.4,14.4-37.7,14.4c-10.7,0-21.1-3.1-30.7-9.3C226,517.1,211.9,524.5,197.1,526.6
					z"/>
			</g>
			<g>
				<path fill="#FFFFFF" d="M107.9,514.2c-14.5,0-28.6-5.9-40.7-17c-21.6-19.8-34.5-53.6-34.5-90.3c0-9.5,0.7-21.4,2.1-34.2
					c3.8-36.6,12-75.8,21.8-104.9c13.1-38.7,28.2-58.3,44.8-58.3c12.5,0,25.2,11.2,37.7,33.3l0.8,1.5l-0.6,1.6
					c-19.3,52.6-30.9,120.9-30.9,156.5c0,37.6,12.4,73.2,33.3,95.3l2.9,3.1l-3.4,2.4C130.8,510.5,119.6,514.2,107.9,514.2z
					 M101.4,216.7c-12.9,0-26.3,18.9-37.9,53.3c-9.7,28.6-17.7,67.2-21.5,103.3c-1.3,12.6-2,24.2-2,33.5c0,34.7,12,66.5,32.2,85
					c10.8,9.9,23.1,15.1,35.8,15.1c8.9,0,17.5-2.5,25.7-7.5c-20.3-23.6-32.4-59.5-32.4-97.1c0-35.4,10.8-102.4,30.8-157.4
					C121.2,226.5,110.7,216.7,101.4,216.7z"/>
			</g>
			<g>
				<path fill="#FFFFFF" d="M269,514.2c-11.7,0-22.9-3.7-33.3-11l-3.4-2.4l2.9-3.1c20.8-22.1,33.3-57.8,33.3-95.3
					c0-37.7-12.3-108.6-32.9-161.9l-0.6-1.6l0.9-1.5c10.6-18.5,21.8-27.8,33.3-27.8c16.7,0,32.7,19.6,47.3,58.3
					c11.3,29.8,20.8,68.9,25.3,104.6c1.7,13.1,2.6,25,2.6,34.5c0,37-13,70.9-34.9,90.7C297.3,508.4,283.3,514.2,269,514.2z
					 M243.3,499.5c8.2,5,16.8,7.5,25.7,7.5c12.5,0,24.8-5.1,35.4-14.8c20.3-18.4,32.5-50.3,32.5-85.3c0-9.2-0.9-20.8-2.5-33.6
					c-4.5-35.1-13.8-73.6-24.9-102.9c-13.1-34.6-27.5-53.6-40.5-53.6c-8.2,0-17.3,7.8-26.1,22.7c20.5,53.9,32.8,124.9,32.8,162.9
					C275.7,440,263.6,475.9,243.3,499.5z"/>
			</g>
			<g>
				<path fill="#FFFFFF" d="M188.4,527.2c-0.3,0-0.5,0-0.8,0c-18.9-0.4-36.4-8.8-51.2-24.5c-22.1-23.4-35.3-60.9-35.3-100.3
					c0-35.8,11-103.7,31.3-159c11.9-32.4,31.3-71,55.9-71c18.9,0,37.1,22,53.8,65.5c20.9,54.1,33.4,126.2,33.4,164.5
					c0,39.4-13.2,76.9-35.3,100.3c-15,15.9-32.8,24.4-51.5,24.5L188.4,527.2z M188.4,179.6c-16,0-33.4,23.5-49.1,66.2
					c-19.3,52.6-30.9,120.9-30.9,156.5c0,37.6,12.4,73.2,33.3,95.3c13.4,14.2,29.2,21.9,45.7,22.2l1,0l0.4,0
					c16.7-0.1,32.7-7.8,46.3-22.2c20.8-22.1,33.3-57.8,33.3-95.3c0-37.7-12.3-108.6-32.9-161.9C220.3,201.2,203.6,179.6,188.4,179.6
					z"/>
			</g>
			<g>
				<path fill="#FFFFFF" d="M59.4,544.1c18.7,0,33.9,15.2,33.9,33.9c0,18.7-15.2,33.9-33.9,33.9c-18.7,0-33.9-15.2-33.9-33.9
					C25.5,559.3,40.7,544.1,59.4,544.1 M59.4,536.8c-22.8,0-41.2,18.5-41.2,41.2s18.5,41.2,41.2,41.2s41.2-18.5,41.2-41.2
					S82.2,536.8,59.4,536.8L59.4,536.8z"/>
			</g>
			<g>
				<path fill="#FFFFFF" d="M316.8,544.1c18.7,0,33.9,15.2,33.9,33.9c0,18.7-15.2,33.9-33.9,33.9c-18.7,0-33.9-15.2-33.9-33.9
					C282.8,559.3,298,544.1,316.8,544.1 M316.8,536.8c-22.8,0-41.2,18.5-41.2,41.2s18.5,41.2,41.2,41.2s41.2-18.5,41.2-41.2
					S339.5,536.8,316.8,536.8L316.8,536.8z"/>
			</g>
		</g>
		<g>
			<path fill="#FFFFFF" d="M188.1,129c38.3,0,75.4,7.5,110.3,22.3c33.7,14.3,64,34.7,90.1,60.7c26,26,46.5,56.3,60.7,90.1
				c14.8,34.9,22.3,72,22.3,110.3s-7.5,75.4-22.3,110.3c-14.3,33.7-34.7,64-60.7,90.1c-26,26-56.3,46.5-90.1,60.7
				c-34.9,14.8-72,22.3-110.3,22.3s-75.4-7.5-110.3-22.3c-33.7-14.3-64-34.7-90.1-60.7c-26-26-46.5-56.3-60.7-90.1
				c-14.8-34.9-22.3-72-22.3-110.3S-87.8,337-73,302.1c14.3-33.7,34.7-64,60.7-90.1c26-26,56.3-46.5,90.1-60.7
				C112.7,136.5,149.8,129,188.1,129 M188.1,114.5c-164.5,0-297.9,133.4-297.9,297.9S23.6,710.2,188.1,710.2S486,576.9,486,412.3
				S352.6,114.5,188.1,114.5L188.1,114.5z"/>
		</g>
	</g>
</g>
</svg>
